<svg width="9" height="16" viewBox="0 0 9 16" fill="none" xmlns="http://www.w3.org/2000/svg">
    <path d="M8.99561 8.00684C8.99561 7.6499 8.87109 7.35938 8.58057 7.08545L2.21387 0.859863C1.99805 0.635742 1.73242 0.527832 1.40869 0.527832C0.769531 0.527832 0.246582 1.04248 0.246582 1.68164C0.246582 1.99707 0.379395 2.2876 0.611816 2.52002L6.25635 7.99854L0.611816 13.4937C0.379395 13.7178 0.246582 14.0083 0.246582 14.332C0.246582 14.9712 0.769531 15.4858 1.40869 15.4858C1.72412 15.4858 1.99805 15.3779 2.21387 15.1538L8.58057 8.92822C8.87109 8.6543 8.99561 8.35547 8.99561 8.00684Z" fill="#3C3C43" fill-opacity="0.3"/>
</svg>