<svg width="22" height="18" viewBox="0 0 22 18" fill="none" xmlns="http://www.w3.org/2000/svg">
    <path d="M11.0195 10.0918C11.4199 10.0918 11.791 9.90625 12.2207 9.47656L20.7168 1.06836C20.3555 0.716797 19.6816 0.550781 18.7148 0.550781H2.99219C2.17188 0.550781 1.5957 0.707031 1.27344 1.0293L9.81836 9.47656C10.2383 9.89648 10.6094 10.0918 11.0195 10.0918ZM0.462891 15.8047L7.36719 8.97852L0.443359 2.15234C0.296875 2.42578 0.21875 2.89453 0.21875 3.56836V14.3496C0.21875 15.043 0.296875 15.5312 0.462891 15.8047ZM21.5469 15.7949C21.7031 15.5117 21.7812 15.0332 21.7812 14.3496V3.56836C21.7812 2.91406 21.7031 2.44531 21.5664 2.18164L14.6621 8.97852L21.5469 15.7949ZM3.28516 17.377H19.0078C19.8281 17.377 20.3945 17.2207 20.7168 16.9082L13.6758 9.93555L13.0312 10.5898C12.3574 11.2344 11.7227 11.5273 11.0195 11.5273C10.3066 11.5273 9.67188 11.2344 9.00781 10.5898L8.35352 9.93555L1.33203 16.8984C1.70312 17.2207 2.34766 17.377 3.28516 17.377Z" fill="#007AFF"/>
</svg>
