<svg width="20" height="19" viewBox="0 0 20 19" fill="none" xmlns="http://www.w3.org/2000/svg">
    <path d="M5.9082 13.373C8.73047 16.1953 12.1582 18.373 14.9609 18.373C16.2207 18.373 17.3242 17.9336 18.2129 16.957C18.7305 16.3809 19.0527 15.707 19.0527 15.043C19.0527 14.5547 18.8672 14.0859 18.4082 13.7539L15.4102 11.625C14.9512 11.3125 14.5703 11.1562 14.2188 11.1562C13.7793 11.1562 13.3789 11.4102 12.9297 11.8496L12.2363 12.5332C12.1289 12.6406 11.9922 12.6895 11.8652 12.6895C11.7188 12.6895 11.5723 12.6309 11.4746 12.582C10.8691 12.2598 9.83398 11.3711 8.86719 10.4141C7.91016 9.45703 7.02148 8.42188 6.70898 7.81641C6.66016 7.70898 6.60156 7.57227 6.60156 7.42578C6.60156 7.29883 6.64062 7.17188 6.74805 7.06445L7.44141 6.35156C7.87109 5.90234 8.13477 5.51172 8.13477 5.0625C8.13477 4.71094 7.96875 4.33008 7.64648 3.87109L5.54688 0.912109C5.20508 0.443359 4.72656 0.238281 4.19922 0.238281C3.55469 0.238281 2.89062 0.53125 2.31445 1.08789C1.36719 1.99609 0.947266 3.11914 0.947266 4.35938C0.947266 7.16211 3.08594 10.5605 5.9082 13.373Z" fill="#007AFF"/>
</svg>