<svg width="25" height="16" viewBox="0 0 25 16" fill="none" xmlns="http://www.w3.org/2000/svg">
    <path d="M3.95312 15.8789H14.4414C16.4043 15.8789 17.5762 14.7461 17.5762 12.793V3.11523C17.5762 1.15234 16.502 0.0195312 14.5391 0.0195312H3.95312C2.07812 0.0195312 0.818359 1.15234 0.818359 3.11523V12.793C0.818359 14.7461 1.99023 15.8789 3.95312 15.8789ZM18.9043 10.8301L22.459 13.9062C22.791 14.1992 23.1816 14.3848 23.5332 14.3848C24.2949 14.3848 24.793 13.8281 24.793 13.0273V2.87109C24.793 2.07031 24.2949 1.51367 23.5332 1.51367C23.1816 1.51367 22.791 1.69922 22.459 1.99219L18.9043 5.05859V10.8301Z" fill="#007AFF"/>
</svg>
